<svg xmlns="http://www.w3.org/2000/svg" viewBox="0 0 350.1 131.8"><defs><style>.cls-1{fill:#101820;}.cls-2{fill:#870f54;}.cls-3{fill:#fff;}</style></defs><title>Fichier 1</title><g id="Calque_2" data-name="Calque 2"><g id="Calque_1-2" data-name="Calque 1"><g id="logo_zino-tech" data-name="logo zino-tech"><path class="cls-1" d="M85.6,77.9v22H0L47.3,22H8.1V0H90.8l-47,77.9Z"/><path class="cls-1" d="M128,99.9H102V0h26Z"/><path class="cls-1" d="M239,99.9H213V38.7h-.3L165.1,99.9h-26V0h26V61.1h.3L213,0h26Z"/><path class="cls-2" d="M350.1,48.2c0,30.3-21,51.7-50,51.7s-50-21.4-50-51.7c0-28.3,24-48.2,50-48.2S350.1,19.8,350.1,48.2Z"/><path class="cls-3" d="M280.4,69.6a2.69,2.69,0,1,1-3.8,0A2.78,2.78,0,0,1,280.4,69.6Z"/><path class="cls-3" d="M293.9,68.6l-3.2,3.2L281,62.1l-2.7,2.7-2.7-2.7,8.5-8.5,2.7,2.7L284.1,59Z"/><path class="cls-3" d="M291.7,51.4l2.1,2.1,3.6-3.6,2.7,2.7-3.6,3.6,2.1,2.1,3.8-3.8,2.7,2.7-7,7L285.7,51.8l7-7,2.7,2.7Z"/><path class="cls-3" d="M308.2,37.8a5.13,5.13,0,0,0-4.2,1.5,4.57,4.57,0,0,0,.1,6.7,4.49,4.49,0,0,0,6.7,0,5.26,5.26,0,0,0,1.5-4.1l3.9,3.9a12,12,0,0,1-2.3,3.4,9.68,9.68,0,0,1-6.5,2.8,9,9,0,0,1-6.7-2.7,9.09,9.09,0,0,1-2.7-6.4,9.46,9.46,0,0,1,6.3-9Z"/><path class="cls-3" d="M319.1,28.2l-4.8-4.8,3.2-3.2,12.4,12.4-3.2,3.2-5.1-5.1L317,35.3l5.1,5.1-3.2,3.2L306.5,31.2l3.2-3.2,4.8,4.8Z"/><path class="cls-1" d="M2.1,126.5.7,129.9H0l4.3-10.7,4.3,10.7H7.9l-1.3-3.4Zm2.3-5.6-2,5H6.5Z"/><path class="cls-1" d="M11.4,129.9h-.7v-9.7H8v-.7h6v.6H11.3v9.8Z"/><path class="cls-1" d="M16.3,120.1v3.8h4.2v.6H16.3v4.7h4.3v.6H15.7V119.5h4.9v.6Z"/><path class="cls-1" d="M23.6,129.3h2.6v.6H22.9V119.5h.7Z"/><path class="cls-1" d="M28.5,129.9h-.7V119.5h.7Z"/><path class="cls-1" d="M31.7,120.1v3.8h4.2v.6H31.7v4.7H36v.6H31.1V119.5H36v.6Z"/><path class="cls-1" d="M43.5,129.9h-.8L39.3,125H39v4.9h-.7V119.5h1.3a4,4,0,0,1,2.4.5,2.57,2.57,0,0,1,1,2.2c0,1.8-1.3,2.7-3,2.7Zm-3.6-5.5a2.38,2.38,0,0,0,1.8-.5,2,2,0,0,0,.7-1.6,2.14,2.14,0,0,0-1.1-1.9,4,4,0,0,0-1.9-.2H39v4.2Z"/><path class="cls-1" d="M52.6,118.8l-7.3,13-.5-.3,7.4-13Z"/><path class="cls-1" d="M59.3,121.2a2.44,2.44,0,0,0-2.1-1.2,2,2,0,0,0-2,2c0,1.1,1,1.5,1.9,1.9l2,1a2.25,2.25,0,0,1,1.2,2.1,3.18,3.18,0,0,1-3.2,3,3.34,3.34,0,0,1-3.1-2.2l.6-.3a2.67,2.67,0,0,0,2.5,1.9,2.55,2.55,0,0,0,2.6-2.4c0-1.2-1.2-1.7-2.1-2.1l-1.9-1a2,2,0,0,1-1.1-1.9,2.55,2.55,0,0,1,2.7-2.6,3,3,0,0,1,2.5,1.5Z"/><path class="cls-1" d="M69.3,123.9v-4.4H70v10.4h-.7v-5.4H63v5.3h-.7V119.5H63v4.4Z"/><path class="cls-1" d="M82.7,124.7a5.4,5.4,0,0,1-10.8,0,5.36,5.36,0,0,1,5.4-5.3A5.42,5.42,0,0,1,82.7,124.7Zm-10.1,0a4.69,4.69,0,0,0,4.7,4.7,4.76,4.76,0,0,0,4.7-4.7,4.7,4.7,0,0,0-9.4,0Z"/><path class="cls-1" d="M87.3,128.4l3.9-9.4,3.9,9.4,2.9-8.9h.7l-3.5,10.7-4-9.6-3.9,9.6-3.5-10.7h.7Z"/><path class="cls-1" d="M105.3,129.9h-.8l-3.4-4.9h-.3v4.9h-.7V119.5h1.3a4,4,0,0,1,2.4.5,2.57,2.57,0,0,1,1,2.2c0,1.8-1.3,2.7-3,2.7Zm-3.6-5.5a2.38,2.38,0,0,0,1.8-.5,2,2,0,0,0,.7-1.6,2.14,2.14,0,0,0-1.1-1.9,4.13,4.13,0,0,0-1.9-.2h-.4v4.2Z"/><path class="cls-1" d="M117.4,124.7a5.4,5.4,0,0,1-10.8,0,5.36,5.36,0,0,1,5.4-5.3A5.42,5.42,0,0,1,117.4,124.7Zm-10.1,0a4.69,4.69,0,0,0,4.7,4.7,4.76,4.76,0,0,0,4.7-4.7,4.7,4.7,0,1,0-9.4,0Z"/><path class="cls-1" d="M129.4,124.7a5.4,5.4,0,0,1-10.8,0,5.4,5.4,0,0,1,10.8,0Zm-10.1,0a4.69,4.69,0,0,0,4.7,4.7,4.76,4.76,0,0,0,4.7-4.7A4.69,4.69,0,0,0,124,120,4.76,4.76,0,0,0,119.3,124.7Z"/><path class="cls-1" d="M140.1,121.3h0l-3.6,8.9-3.6-8.9h0l-1.8,8.6h-.6l2.2-10.7,3.8,9.4,3.8-9.4,2.2,10.7h-.6Z"/><path class="cls-1" d="M148.7,119.5h1.9a4.81,4.81,0,0,1,3.8,1.3,5.22,5.22,0,0,1,1.7,3.9,5.14,5.14,0,0,1-5.5,5.2h-1.9Zm1.8,9.8A4.52,4.52,0,0,0,154,128a4.56,4.56,0,0,0-3.5-7.9h-1.2v9.1h1.2Z"/><path class="cls-1" d="M158.6,120.1v3.8h4.2v.6h-4.2v4.7h4.3v.6H158V119.5h4.9v.6Z"/><path class="cls-1" d="M170.1,121.2A2.44,2.44,0,0,0,168,120a2,2,0,0,0-2,2c0,1.1,1,1.5,1.9,1.9l2,1a2.25,2.25,0,0,1,1.2,2.1,3.18,3.18,0,0,1-3.2,3,3.34,3.34,0,0,1-3.1-2.2l.6-.3a2.67,2.67,0,0,0,2.5,1.9,2.55,2.55,0,0,0,2.6-2.4c0-1.2-1.2-1.7-2.1-2.1l-1.9-1a2,2,0,0,1-1.1-1.9,2.55,2.55,0,0,1,2.7-2.6,3,3,0,0,1,2.5,1.5Z"/><path class="cls-1" d="M178.4,120.1v3.8h4.2v.6h-4.2v4.7h4.3v.6h-4.9V119.5h4.9v.6Zm3.1-3.3-1.7,2-.5-.2,1.4-2Z"/><path class="cls-1" d="M185,119.5h1.9a4.81,4.81,0,0,1,3.8,1.3,5.22,5.22,0,0,1,1.7,3.9,5.14,5.14,0,0,1-5.5,5.2H185Zm1.9,9.8a4.52,4.52,0,0,0,3.5-1.3,4.56,4.56,0,0,0-3.5-7.9h-1.2v9.1h1.2Z"/><path class="cls-1" d="M195,129.9h-.7V119.5h.7Z"/><path class="cls-1" d="M199.9,129.9h-.7v-9.7h-2.7v-.7h6v.6h-2.7v9.8Z"/><path class="cls-1" d="M204.8,129.9h-.7V119.5h.7Z"/><path class="cls-1" d="M217.5,124.7a5.4,5.4,0,0,1-10.8,0,5.36,5.36,0,0,1,5.4-5.3A5.42,5.42,0,0,1,217.5,124.7Zm-10.1,0a4.69,4.69,0,0,0,4.7,4.7,4.76,4.76,0,0,0,4.7-4.7,4.7,4.7,0,0,0-9.4,0Z"/><path class="cls-1" d="M228.8,130.2l-8.7-9.3v8.9h-.7V119.3l8.7,9.2v-9h.7Z"/><path class="cls-1" d="M236.1,121.2A2.44,2.44,0,0,0,234,120a2,2,0,0,0-2,2c0,1.1,1,1.5,1.9,1.9l2,1a2.25,2.25,0,0,1,1.2,2.1,3.18,3.18,0,0,1-3.2,3,3.34,3.34,0,0,1-3.1-2.2l.6-.3a2.67,2.67,0,0,0,2.5,1.9,2.55,2.55,0,0,0,2.6-2.4c0-1.2-1.2-1.7-2.1-2.1l-1.9-1a2,2,0,0,1-1.1-1.9,2.55,2.55,0,0,1,2.7-2.6,3,3,0,0,1,2.5,1.5Z"/><path class="cls-1" d="M243.8,119.5h1.9a4.81,4.81,0,0,1,3.8,1.3,5.22,5.22,0,0,1,1.7,3.9,5.14,5.14,0,0,1-5.5,5.2h-1.9Zm1.8,9.8a4.52,4.52,0,0,0,3.5-1.3,4.56,4.56,0,0,0-3.5-7.9h-1.2v9.1h1.2Z"/><path class="cls-1" d="M259.4,119.5h.7V126a3.83,3.83,0,0,1-.7,2.8,3.87,3.87,0,0,1-5.6,0,4.08,4.08,0,0,1-.7-2.8v-6.5h.7v6.3a4.51,4.51,0,0,0,.5,2.6,3.14,3.14,0,0,0,4.6,0,4.51,4.51,0,0,0,.5-2.6Z"/><path class="cls-1" d="M267.8,129.9h-.7V119.5h1.8a3.34,3.34,0,0,1,2.2.6,2.72,2.72,0,0,1,.9,2.1,2.52,2.52,0,0,1-.9,2,3.69,3.69,0,0,1-2.3.7h-1.2v5Z"/><path class="cls-1" d="M273.8,126.5l-1.4,3.4h-.7l4.3-10.7,4.3,10.7h-.7l-1.4-3.4Z"/><path class="cls-1" d="M286.8,121.2a2.44,2.44,0,0,0-2.1-1.2,2,2,0,0,0-2,2c0,1.1,1,1.5,1.9,1.9l2,1a2.25,2.25,0,0,1,1.2,2.1,3.18,3.18,0,0,1-3.2,3,3.34,3.34,0,0,1-3.1-2.2l.6-.3a2.67,2.67,0,0,0,2.5,1.9,2.55,2.55,0,0,0,2.6-2.4c0-1.2-1.2-1.7-2.1-2.1l-1.9-1a2,2,0,0,1-1.1-1.9,2.55,2.55,0,0,1,2.7-2.6,3,3,0,0,1,2.5,1.5Z"/><path class="cls-1" d="M295.1,129.9h-.7V119.5h1.8a3.34,3.34,0,0,1,2.2.6,2.72,2.72,0,0,1,.9,2.1,2.52,2.52,0,0,1-.9,2,3.69,3.69,0,0,1-2.3.7h-1.2v5Z"/><path class="cls-1" d="M311.4,124.7a5.4,5.4,0,0,1-10.8,0,5.36,5.36,0,0,1,5.4-5.3A5.42,5.42,0,0,1,311.4,124.7Z"/><path class="cls-1" d="M318.1,121.2A2.44,2.44,0,0,0,316,120a2,2,0,0,0-2,2c0,1.1,1,1.5,1.9,1.9l2,1a2.25,2.25,0,0,1,1.2,2.1,3.18,3.18,0,0,1-3.2,3,3.34,3.34,0,0,1-3.1-2.2l.6-.3a2.67,2.67,0,0,0,2.5,1.9,2.55,2.55,0,0,0,2.6-2.4c0-1.2-1.2-1.7-2.1-2.1l-1.9-1a2,2,0,0,1-1.1-1.9,2.55,2.55,0,0,1,2.7-2.6,3,3,0,0,1,2.5,1.5Z"/><path class="cls-1" d="M326,121.2a2.44,2.44,0,0,0-2.1-1.2,2,2,0,0,0-2,2c0,1.1,1,1.5,1.9,1.9l2,1A2.25,2.25,0,0,1,327,127a3.18,3.18,0,0,1-3.2,3,3.34,3.34,0,0,1-3.1-2.2l.6-.3a2.67,2.67,0,0,0,2.5,1.9,2.55,2.55,0,0,0,2.6-2.4c0-1.2-1.2-1.7-2.1-2.1l-1.9-1a2,2,0,0,1-1.1-1.9,2.55,2.55,0,0,1,2.7-2.6,3,3,0,0,1,2.5,1.5Z"/><path class="cls-1" d="M329.6,129.9h-.7V119.5h.7Z"/><path class="cls-1" d="M332.2,129.9V119.5h2.1a3.07,3.07,0,0,1,2.1.6,2.72,2.72,0,0,1,.9,2.1,2.35,2.35,0,0,1-1.2,2.1,2.58,2.58,0,0,1,2.1,2.6,2.51,2.51,0,0,1-1,2.1,3.41,3.41,0,0,1-2.4.7h-2.6Z"/><path class="cls-1" d="M341,129.3h2.6v.6h-3.3V119.5h.7v9.8Z"/><path class="cls-1" d="M345.8,120.1v3.8H350v.6h-4.2v4.7h4.3v.6h-4.9V119.5h4.9v.6Z"/></g></g></g></svg>