<svg xmlns="http://www.w3.org/2000/svg" width="175" height="120.748" viewBox="0 0 175 120.748">
  <g id="package-box-svgrepo-com" transform="translate(0 -79.363)">
    <g id="Groupe_64" data-name="Groupe 64" transform="translate(0 79.363)">
      <g id="Groupe_63" data-name="Groupe 63">
        <path id="Tracé_56" data-name="Tracé 56" d="M172.665,122.327,150.444,114l22.286-8.3a3.486,3.486,0,0,0-.009-6.538L119.626,79.578a3.489,3.489,0,0,0-2.42,0L87.492,90.616,57.924,79.63a3.484,3.484,0,0,0-2.421,0L2.409,99.218a3.486,3.486,0,0,0-.01,6.538l22.088,8.228L2.276,122.2a3.486,3.486,0,0,0,0,6.54l28.739,10.6v37.69a3.486,3.486,0,0,0,2.277,3.27l52.987,19.591a3.471,3.471,0,0,0,2.416,0v0L141.687,180.3a3.486,3.486,0,0,0,2.277-3.27V139.446l28.684-10.584a3.486,3.486,0,0,0,.017-6.535ZM118.424,86.566l43.059,15.888-21.006,7.821L97.509,94.334ZM13.644,102.5,56.706,86.615l20.771,7.717-42.97,15.943Zm-.1,22.961L34.5,117.712,77.45,133.624l-20.872,7.72Zm70.46,66.154L37.991,174.606v-32.69l17.382,6.414a3.488,3.488,0,0,0,2.416,0l26.216-9.7v52.986Zm3.486-61.71-42.96-15.917L83.665,99.473V112.2a3.486,3.486,0,0,0,6.972,0V99.22l39.814,14.772Zm49.5,44.7h0L90.978,191.619V138.654l26.148,9.793a3.487,3.487,0,0,0,2.429.006l17.437-6.434v32.587Zm-18.635-33.142-20.88-7.82,42.994-15.929,20.966,7.853Z" transform="translate(0 -79.363)"/>
      </g>
    </g>
    <g id="Groupe_66" data-name="Groupe 66" transform="translate(82.863 117.859)">
      <g id="Groupe_65" data-name="Groupe 65">
        <path id="Tracé_57" data-name="Tracé 57" d="M249.072,193.785a4.292,4.292,0,0,0-4.291,4.291v.858a4.291,4.291,0,0,0,8.583,0v-.858A4.292,4.292,0,0,0,249.072,193.785Z" transform="translate(-244.781 -193.785)"/>
      </g>
    </g>
  </g>
</svg>
