<svg xmlns="http://www.w3.org/2000/svg" width="119.181" height="180" viewBox="0 0 119.181 180">
  <g id="padlock-lock-svgrepo-com" transform="translate(-86.498)">
    <g id="Groupe_68" data-name="Groupe 68" transform="translate(86.498)">
      <g id="Groupe_67" data-name="Groupe 67">
        <path id="Tracé_58" data-name="Tracé 58" d="M202.094,67.936h-9.151V46.861a46.854,46.854,0,0,0-93.708,0V67.937H90.084A3.586,3.586,0,0,0,86.5,71.522v90.657a3.586,3.586,0,0,0,2.7,3.475l56,14.235a3.579,3.579,0,0,0,1.767,0l56-14.235a3.585,3.585,0,0,0,2.7-3.475V71.522A3.586,3.586,0,0,0,202.094,67.936ZM106.406,46.86A39.9,39.9,0,0,1,137.7,8.074a39.418,39.418,0,0,1,16.771,0,39.9,39.9,0,0,1,31.3,38.786V67.936h-8.114V47.319a31.569,31.569,0,0,0-63.137,0V67.936h-8.114V46.86Zm64.08.458V67.936h-48.8V47.319a24.523,24.523,0,0,1,19.288-23.856,24.249,24.249,0,0,1,10.22,0A24.523,24.523,0,0,1,170.486,47.319Zm28.022,112.072-52.419,13.324L93.669,159.391V75.107H198.508v84.283Z" transform="translate(-86.498)"/>
      </g>
    </g>
    <g id="Groupe_70" data-name="Groupe 70" transform="translate(124.766 81.866)">
      <g id="Groupe_69" data-name="Groupe 69">
        <path id="Tracé_59" data-name="Tracé 59" d="M239.865,298.139a21.323,21.323,0,1,0-24.332,0l-4.733,25.18a4.382,4.382,0,0,0,4.307,5.191H240.29a4.382,4.382,0,0,0,4.307-5.191Zm-9.182-1.4,4.324,23.011H220.39l4.324-23.011a4.382,4.382,0,0,0-2.419-4.764,12.558,12.558,0,1,1,10.805,0A4.383,4.383,0,0,0,230.683,296.734Z" transform="translate(-206.376 -259.308)"/>
      </g>
    </g>
    <g id="Groupe_72" data-name="Groupe 72" transform="translate(183.243 76.202)">
      <g id="Groupe_71" data-name="Groupe 71">
        <path id="Tracé_60" data-name="Tracé 60" d="M377.668,225.414a4.383,4.383,0,0,0-4.382,4.382v23.665a4.382,4.382,0,1,0,8.765,0V229.8A4.383,4.383,0,0,0,377.668,225.414Z" transform="translate(-373.286 -225.414)"/>
      </g>
    </g>
    <g id="Groupe_74" data-name="Groupe 74" transform="translate(183.243 108.392)">
      <g id="Groupe_73" data-name="Groupe 73">
        <path id="Tracé_61" data-name="Tracé 61" d="M377.668,312.1a4.383,4.383,0,0,0-4.382,4.382v2.629a4.382,4.382,0,1,0,8.765,0v-2.629A4.383,4.383,0,0,0,377.668,312.1Z" transform="translate(-373.286 -312.103)"/>
      </g>
    </g>
  </g>
</svg>
