<svg xmlns="http://www.w3.org/2000/svg" width="185.963" height="192.991" viewBox="0 0 185.963 192.991">
  <g id="Groupe_59" data-name="Groupe 59" transform="translate(-294.449 -2974.986)">
    <path id="france-france-svgrepo-com" d="M166.966,142.1l-1.2-11.4-5.824-6.52,6.869-3.212-5.166-11.493,3.076-2.244-5.263-10.041-9.152.6,14.163-23.024,6.095-2.4-.89-10.564L172.229,50.8l-2.863-8.571-11.28-2.9-4.857-4.43-32.252-10-1.625-7.527L101.6,6.886,99.327,2,86.944,6.508l.1,10.332L84,23.186l-15.42,7.4L68.512,33.9l-7.061,3L50.6,33.994l-2.515-6-8.733.82,4.527,14.666L42.87,51.51l-15.555.813-7.035-6.6L2.008,48.958,3.09,62.918,29.385,75.5l6.133,8.667-2.051,4.721,4.121,6.81,9.636,4.469-7.894,56.38,2.535,11.222,23.5,10.392L71.8,176.41l21.4,9.209,14.7-6.413-.27-8.068,13.5-12.44,21.3,3.482,9.364,5.088L162.9,164l14.1-19.251Z" transform="translate(296.71 2978)" fill="#fff" stroke="#101820" stroke-width="8"/>
    <path id="Icon_map-postal-code" data-name="Icon map-postal-code" d="M29.476,0A22.178,22.178,0,0,0,7.2,22.077c0,12.194,22.276,52.178,22.276,52.178S51.752,34.271,51.752,22.077A22.178,22.178,0,0,0,29.476,0ZM29.4,28.679a6.814,6.814,0,1,1,6.877-6.813A6.844,6.844,0,0,1,29.4,28.679Z" transform="translate(378.978 3033.025)"/>
  </g>
</svg>
